<svg xmlns="http://www.w3.org/2000/svg" width="5657" height="1803" viewBox="0 0 5657 1803" fill="none"><mask id="mask0_2179_32587" style="mask-type:luminance" maskUnits="userSpaceOnUse" x="0" y="0" width="5657" height="1803"><path d="M0 0.368164H5656.1V1802.26H0V0.368164Z" fill="white"></path></mask><g mask="url(#mask0_2179_32587)"><mask id="mask1_2179_32587" style="mask-type:luminance" maskUnits="userSpaceOnUse" x="0" y="0" width="5673" height="1803"><path d="M5672.66 0.368164H0V1802.26H5672.66V0.368164Z" fill="white"></path></mask><g mask="url(#mask1_2179_32587)"><mask id="mask2_2179_32587" style="mask-type:luminance" maskUnits="userSpaceOnUse" x="0" y="26" width="5646" height="1772"><path d="M0 26.959H5645.16V1797.05H0V26.959Z" fill="white"></path></mask><g mask="url(#mask2_2179_32587)"><mask id="mask3_2179_32587" style="mask-type:luminance" maskUnits="userSpaceOnUse" x="0" y="0" width="5673" height="1803"><path d="M5672.66 0.368164H0V1802.26H5672.66V0.368164Z" fill="white"></path></mask><g mask="url(#mask3_2179_32587)"><path d="M54.2227 847.512V223.939H467.159V332.387H186.133V480.981H440.047V589.949H186.133V847.512H54.2227Z" fill="#1500BB"></path><path d="M917.213 223.939H1048.08V636.352C1048.08 683.277 1036.87 723.293 1014.71 756.27C992.813 788.987 962.312 813.883 923.469 830.828C884.496 847.772 839.787 856.375 789.474 856.375C739.03 856.375 694.321 847.772 655.478 830.828C616.505 813.883 585.873 788.987 563.714 756.27C541.816 723.293 530.867 683.277 530.867 636.352V223.939H662.777V631.66C662.777 665.028 674.769 691.358 698.753 710.388C722.736 729.158 752.977 738.543 789.474 738.543C826.231 738.543 856.732 729.158 880.716 710.388C904.96 691.358 917.213 665.028 917.213 631.66V223.939Z" fill="#1500BB"></path><path d="M1653.35 223.939V847.512H1539.16L1268.04 454.912H1263.35V847.512H1131.44V223.939H1247.19L1516.22 616.018H1521.96V223.939H1653.35Z" fill="#1500BB"></path><path d="M1957.96 847.512H1736.89V223.939H1960.04C2022.61 223.939 2076.44 236.453 2121.67 261.479C2167.16 286.245 2202.1 321.829 2226.47 368.362C2250.71 414.635 2262.97 470.292 2262.97 535.204C2262.97 600.247 2250.71 656.034 2226.47 702.568C2202.1 749.231 2167.03 784.946 2121.15 809.972C2075.53 834.999 2021.18 847.512 1957.96 847.512ZM1868.8 734.372H1952.74C2011.14 734.372 2055.46 718.6 2085.7 686.926C2116.2 655.383 2131.58 604.809 2131.58 535.204C2131.58 465.73 2116.2 415.286 2085.7 384.004C2055.46 352.46 2011.14 336.558 1952.74 336.558H1868.8V734.372Z" fill="#1500BB"></path><path d="M2443.04 847.512H2301.75L2517.08 223.939H2687.05L2902.38 847.512H2760.56L2714.68 705.175H2489.44L2443.04 847.512ZM2522.81 602.462H2681.31L2604.67 366.277H2599.46L2522.81 602.462Z" fill="#1500BB"></path><path d="M3502.63 441.877H3369.15C3363.94 407.857 3349.08 381.136 3324.84 361.584C3300.85 341.772 3270.74 331.866 3234.64 331.866C3186.28 331.866 3147.57 349.593 3118.37 385.047C3089.17 420.501 3074.57 470.814 3074.57 535.726C3074.57 602.202 3089.17 652.776 3118.37 687.448C3147.83 722.25 3186.28 739.586 3233.59 739.586C3268.66 739.586 3298.38 730.462 3322.75 711.953C3347.39 693.574 3362.9 667.635 3369.15 634.267L3502.63 634.788C3497.68 673.11 3483.99 709.085 3461.44 742.714C3438.76 776.474 3408.26 803.716 3369.68 824.571C3331.09 845.427 3284.95 855.854 3231.51 855.854C3175.85 855.854 3126.19 843.341 3082.39 818.315C3038.6 793.028 3003.92 756.531 2978.64 708.825C2953.61 661.249 2941.1 603.505 2941.1 535.726C2941.1 467.686 2953.74 409.812 2979.16 362.106C3004.84 314.53 3039.64 278.163 3083.44 253.137C3127.49 227.85 3176.89 215.076 3231.51 215.076C3279.74 215.076 3323.27 223.94 3361.85 241.667C3400.44 259.394 3431.98 285.332 3456.75 319.352C3481.38 353.112 3496.63 393.91 3502.63 441.877Z" fill="#1500BB"></path><path d="M3821.85 223.939H3952.2V658.772C3952.2 698.788 3943.07 733.59 3925.09 763.048C3907.36 792.636 3882.46 815.577 3850.53 831.87C3818.46 847.773 3781.45 855.854 3739.47 855.854C3701.93 855.854 3667.78 849.206 3637.28 836.041C3606.65 822.486 3582.28 802.152 3564.29 775.04C3546.56 747.928 3537.83 713.777 3538.22 672.328H3669.09C3669.35 697.093 3676.52 716.384 3690.46 730.201C3704.67 743.757 3723.31 750.535 3746.25 750.535C3796.3 750.535 3821.46 720.034 3821.85 658.772V223.939Z" fill="#1500BB"></path><path d="M4143.37 847.512H4002.07L4217.41 223.939H4387.38L4602.71 847.512H4460.89L4415.01 705.175H4189.77L4143.37 847.512ZM4223.14 602.462H4381.64L4305 366.277H4299.78L4223.14 602.462Z" fill="#1500BB"></path><path d="M576.128 967.028V1590.6H461.945L190.825 1198H186.133V1590.6H54.2227V967.028H169.97L439.004 1359.11H444.739V967.028H576.128Z" fill="#1500BB"></path><path d="M791.582 967.028V1590.6H659.672V967.028H791.582Z" fill="#1500BB"></path><path d="M875.355 1590.6V967.028H1295.59V1075.48H1007.27V1224.07H1274.21V1333.04H1007.27V1481.63H1296.63V1590.6H875.355Z" fill="#1500BB"></path><path d="M1375.75 1590.6V967.028H1621.84C1669.03 967.028 1709.44 976.153 1742.8 994.14C1776.17 1011.87 1801.46 1036.76 1818.93 1068.7C1836.65 1100.37 1845.52 1136.87 1845.52 1178.19C1845.52 1219.64 1836.39 1256.13 1818.41 1287.68C1800.68 1319.35 1774.74 1343.99 1740.72 1361.71C1706.96 1379.44 1666.29 1388.3 1618.71 1388.3H1507.66V1590.6H1375.75ZM1507.66 1282.46H1597.34C1634.88 1282.46 1662.77 1272.95 1681.28 1253.79C1700.05 1234.37 1709.44 1209.21 1709.44 1178.19C1709.44 1147.3 1700.05 1122.27 1681.28 1103.11C1662.77 1084.08 1634.62 1074.43 1596.82 1074.43H1507.66V1282.46Z" fill="#1500BB"></path><path d="M2479.29 1278.81C2479.29 1346.99 2466.39 1404.86 2440.71 1452.43C2415.29 1500.14 2380.49 1536.38 2336.43 1561.4C2292.25 1586.43 2242.59 1598.94 2187.32 1598.94C2132.05 1598.94 2082.26 1586.43 2038.2 1561.4C1994.02 1536.12 1959.08 1499.62 1933.4 1451.91C1907.99 1403.95 1895.34 1346.33 1895.34 1278.81C1895.34 1210.77 1907.99 1152.9 1933.4 1105.19C1959.08 1057.62 1994.02 1021.25 2038.2 996.226C2082.26 970.939 2132.05 958.165 2187.32 958.165C2242.59 958.165 2292.25 970.939 2336.43 996.226C2380.49 1021.25 2415.29 1057.62 2440.71 1105.19C2466.39 1152.9 2479.29 1210.77 2479.29 1278.81ZM2345.82 1278.81C2345.82 1212.47 2331.35 1161.89 2302.54 1127.09C2273.61 1092.42 2235.29 1074.95 2187.32 1074.95C2139.35 1074.95 2100.9 1092.42 2072.09 1127.09C2043.16 1161.89 2028.82 1212.47 2028.82 1278.81C2028.82 1344.9 2043.16 1395.47 2072.09 1430.54C2100.9 1465.34 2139.35 1482.67 2187.32 1482.67C2235.29 1482.67 2273.61 1465.34 2302.54 1430.54C2331.35 1395.47 2345.82 1344.9 2345.82 1278.81Z" fill="#1500BB"></path><path d="M2773 1590.6H2551.93V967.028H2775.09C2837.65 967.028 2891.48 979.541 2936.71 1004.57C2982.21 1029.33 3017.14 1064.92 3041.51 1111.45C3065.76 1157.72 3078.01 1213.38 3078.01 1278.29C3078.01 1343.34 3065.76 1399.12 3041.51 1445.66C3017.14 1492.32 2982.08 1528.03 2936.19 1553.06C2890.57 1578.09 2836.22 1590.6 2773 1590.6ZM2683.84 1477.46H2767.79C2826.18 1477.46 2870.5 1461.69 2900.74 1430.02C2931.24 1398.47 2946.62 1347.9 2946.62 1278.29C2946.62 1208.82 2931.24 1158.38 2900.74 1127.09C2870.5 1095.55 2826.18 1079.65 2767.79 1079.65H2683.84V1477.46Z" fill="#1500BB"></path><path d="M3143.9 1590.6V1512.39L3455.17 1075.48H3143.38V967.028H3620.97V1045.24L3309.18 1481.63H3621.49V1590.6H3143.9Z" fill="#1500BB"></path><path d="M3829.57 967.028V1590.6H3697.66V967.028H3829.57Z" fill="#1500BB"></path><path d="M3913.35 1590.6V967.028H4333.59V1075.48H4045.26V1224.07H4312.21V1333.04H4045.26V1481.63H4334.63V1590.6H3913.35Z" fill="#1500BB"></path><path d="M4413.75 1590.6V967.028H4545.66V1481.63H4813.13V1590.6H4413.75Z" fill="#1500BB"></path><path d="M5397.37 967.028V1590.6H5283.19L5012.07 1198H5007.38V1590.6H4875.47V967.028H4991.22L5260.25 1359.11H5265.99V967.028H5397.37Z" fill="#1500BB"></path><path d="M5612.83 967.028V1590.6H5480.92V967.028H5612.83Z" fill="#1500BB"></path></g></g></g></g></svg>